# 3ds Max Wavefront OBJ Exporter v0.99 - (c)2007 guruware
# File Created: 28.01.2023 18:16:45

mtllib macbook_screen.mtl

#
# object macbook_screen
#

v  -207.9942 375.1373 474.8143
v  -209.4701 375.1373 476.6182
v  -209.4701 375.0492 476.6182
v  -207.9942 375.0492 474.8143
v  -211.2739 375.1373 478.0940
v  -211.2739 375.0492 478.0940
v  -320.9066 375.1373 478.0940
v  -322.7104 375.1373 476.6182
v  -322.7104 375.0492 476.6182
v  -320.9066 375.0492 478.0940
v  -324.1863 375.1373 474.8143
v  -324.1863 375.0492 474.8143
v  -325.3431 375.1373 472.6660
v  -325.3431 375.0492 472.6660
v  -318.7583 375.1373 479.2508
v  -318.7583 375.0492 479.2508
v  -316.2498 375.1373 480.0870
v  -316.2498 375.0492 480.0870
v  -326.1792 375.1373 470.1575
v  -326.1792 375.0492 470.1575
v  -313.3723 375.1373 480.5948
v  -313.3723 375.0492 480.5948
v  -326.6870 375.1373 467.2800
v  -326.6870 375.0492 467.2800
v  -310.0794 375.1373 480.7681
v  -310.0794 375.0492 480.7681
v  -309.6853 375.1373 480.7668
v  -309.6853 375.0492 480.7668
v  -326.8591 375.1373 464.0334
v  -326.8591 375.0492 464.0334
v  -326.8591 375.1373 463.5930
v  -326.8591 375.0492 463.5930
v  -326.8591 375.1373 411.6313
v  -326.8591 375.0492 411.6313
v  -326.8604 375.1373 411.2372
v  -326.8604 375.0492 411.2372
v  -326.6870 375.1373 407.9443
v  -326.6870 375.0492 407.9443
v  -326.1792 375.1373 405.0668
v  -326.1792 375.0492 405.0668
v  -325.3431 375.1373 402.5583
v  -325.3431 375.0492 402.5583
v  -324.1863 375.1373 400.4100
v  -324.1863 375.0492 400.4100
v  -322.7104 375.1373 398.6061
v  -322.7104 375.0492 398.6061
v  -320.9066 375.1373 397.1303
v  -320.9066 375.0492 397.1303
v  -318.7583 375.1373 395.9735
v  -318.7583 375.0492 395.9735
v  -316.2498 375.1373 395.1373
v  -316.2498 375.0492 395.1373
v  -313.3723 375.1373 394.6295
v  -313.3723 375.0492 394.6295
v  -310.1257 375.1373 394.4575
v  -310.1257 375.0492 394.4575
v  -309.6853 375.1373 394.4575
v  -309.6853 375.0492 394.4575
v  -222.4952 375.1373 394.4575
v  -222.4952 375.0492 394.4575
v  -222.1012 375.1373 394.4562
v  -222.1012 375.0492 394.4562
v  -218.8082 375.1373 394.6295
v  -218.8082 375.0492 394.6295
v  -215.9307 375.1373 395.1373
v  -215.9307 375.0492 395.1373
v  -213.4223 375.1373 395.9735
v  -213.4223 375.0492 395.9735
v  -211.2739 375.1373 397.1303
v  -211.2739 375.0492 397.1303
v  -209.4701 375.1373 398.6061
v  -209.4701 375.0492 398.6061
v  -207.9942 375.1373 400.4100
v  -207.9942 375.0492 400.4100
v  -206.8375 375.1373 402.5583
v  -206.8375 375.0492 402.5583
v  -206.0013 375.1373 405.0668
v  -206.0013 375.0492 405.0668
v  -205.4935 375.1373 407.9443
v  -205.4935 375.0492 407.9443
v  -205.3214 375.1373 411.1909
v  -205.3214 375.0492 411.1909
v  -205.3214 375.1373 411.6313
v  -205.3214 375.0492 411.6313
v  -222.4952 375.1373 480.7668
v  -222.4952 375.0492 480.7668
v  -205.3214 375.1373 463.5930
v  -205.3214 375.0492 463.5930
v  -222.0549 375.1373 480.7668
v  -222.0549 375.0492 480.7668
v  -205.3202 375.1373 463.9871
v  -205.3202 375.0492 463.9871
v  -218.8082 375.1373 480.5948
v  -218.8082 375.0492 480.5948
v  -205.4935 375.1373 467.2800
v  -205.4935 375.0492 467.2800
v  -206.0013 375.1373 470.1575
v  -206.0013 375.0492 470.1575
v  -215.9307 375.1373 480.0870
v  -215.9307 375.0492 480.0870
v  -213.4223 375.1373 479.2508
v  -213.4223 375.0492 479.2508
v  -206.8375 375.1373 472.6660
v  -206.8375 375.0492 472.6660
v  -212.5994 375.0492 473.4889
v  -211.6706 375.0492 472.3537
v  -213.7346 375.0492 474.4176
v  -215.1754 375.0492 475.1934
v  -217.0155 375.0492 475.8068
v  -219.3092 375.0492 476.2116
v  -222.1715 375.0492 476.3633
v  -222.4952 375.0492 476.3633
v  -309.6921 375.0492 476.3633
v  -309.9704 375.0492 476.3642
v  -312.8721 375.0492 476.2114
v  -315.1651 375.0492 475.8068
v  -317.0052 375.0492 475.1934
v  -318.4460 375.0492 474.4176
v  -319.5811 375.0492 473.4889
v  -320.5099 375.0492 472.3537
v  -321.2857 375.0492 470.9129
v  -321.8991 375.0492 469.0728
v  -322.3039 375.0492 466.7790
v  -322.4556 375.0492 463.9168
v  -322.4556 375.0492 463.5930
v  -322.4556 375.0492 411.6245
v  -322.4565 375.0492 411.3462
v  -322.3037 375.0492 408.4445
v  -321.8991 375.0492 406.1515
v  -321.2857 375.0492 404.3114
v  -320.5099 375.0492 402.8706
v  -319.5811 375.0492 401.7354
v  -318.4460 375.0492 400.8067
v  -317.0052 375.0492 400.0309
v  -315.1651 375.0492 399.4175
v  -312.8713 375.0492 399.0127
v  -310.0090 375.0492 398.8610
v  -309.6853 375.0492 398.8610
v  -222.4884 375.0492 398.8610
v  -222.2102 375.0492 398.8601
v  -219.3084 375.0492 399.0129
v  -217.0155 375.0492 399.4175
v  -215.1754 375.0492 400.0309
v  -213.7346 375.0492 400.8067
v  -212.5994 375.0492 401.7354
v  -211.6706 375.0492 402.8706
v  -210.8948 375.0492 404.3114
v  -210.2815 375.0492 406.1515
v  -209.8767 375.0492 408.4453
v  -209.7249 375.0492 411.3075
v  -209.7249 375.0492 411.6313
v  -209.7249 375.0492 463.5998
v  -209.7241 375.0492 463.8781
v  -209.8768 375.0492 466.7798
v  -210.2815 375.0492 469.0728
v  -210.8948 375.0492 470.9129
v  -212.5994 375.1373 473.4889
v  -213.7346 375.1373 474.4177
v  -211.6706 375.1373 472.3537
v  -210.8948 375.1373 470.9129
v  -210.2815 375.1373 469.0728
v  -209.8768 375.1373 466.7798
v  -209.7241 375.1373 463.8781
v  -209.7249 375.1373 463.5998
v  -209.7249 375.1373 411.6313
v  -209.7249 375.1373 411.3075
v  -209.8767 375.1373 408.4453
v  -210.2815 375.1373 406.1515
v  -210.8948 375.1373 404.3114
v  -211.6706 375.1373 402.8706
v  -212.5994 375.1373 401.7354
v  -213.7346 375.1373 400.8066
v  -215.1754 375.1373 400.0309
v  -217.0155 375.1373 399.4175
v  -219.3084 375.1373 399.0129
v  -222.2102 375.1373 398.8601
v  -222.4884 375.1373 398.8610
v  -309.6853 375.1373 398.8610
v  -310.0090 375.1373 398.8610
v  -312.8713 375.1373 399.0127
v  -315.1651 375.1373 399.4175
v  -317.0052 375.1373 400.0309
v  -318.4460 375.1373 400.8066
v  -319.5811 375.1373 401.7354
v  -320.5099 375.1373 402.8706
v  -321.2857 375.1373 404.3114
v  -321.8991 375.1373 406.1515
v  -322.3037 375.1373 408.4445
v  -322.4565 375.1373 411.3462
v  -322.4556 375.1373 411.6245
v  -322.4556 375.1373 463.5930
v  -322.4556 375.1373 463.9168
v  -322.3039 375.1373 466.7790
v  -321.8991 375.1373 469.0728
v  -321.2857 375.1373 470.9129
v  -320.5099 375.1373 472.3537
v  -319.5811 375.1373 473.4889
v  -318.4460 375.1373 474.4177
v  -317.0052 375.1373 475.1934
v  -315.1651 375.1373 475.8068
v  -312.8721 375.1373 476.2114
v  -309.9704 375.1373 476.3642
v  -309.6921 375.1373 476.3633
v  -222.4952 375.1373 476.3633
v  -222.1715 375.1373 476.3633
v  -219.3092 375.1373 476.2116
v  -217.0155 375.1373 475.8068
v  -215.1754 375.1373 475.1934
v  -266.0903 375.0492 437.6122
v  -266.0903 375.1373 437.6122
# 210 vertices

vn 0.8310 -0.0000 0.5562
vn 0.7071 -0.0000 0.7071
vn 0.5562 -0.0000 0.8310
vn -0.5562 -0.0000 0.8310
vn -0.7071 -0.0000 0.7071
vn -0.8310 -0.0000 0.5562
vn -0.9180 -0.0000 0.3966
vn -0.3966 -0.0000 0.9180
vn -0.2457 -0.0000 0.9694
vn -0.9694 -0.0000 0.2457
vn -0.1134 -0.0000 0.9936
vn -0.9935 -0.0000 0.1136
vn -0.0247 -0.0000 0.9997
vn 0.0015 -0.0000 1.0000
vn -0.9996 -0.0000 0.0265
vn -1.0000 -0.0000 0.0000
vn -1.0000 -0.0000 0.0015
vn -0.9997 -0.0000 -0.0247
vn -0.9936 -0.0000 -0.1134
vn -0.9694 -0.0000 -0.2457
vn -0.9180 -0.0000 -0.3966
vn -0.8310 0.0000 -0.5562
vn -0.7071 0.0000 -0.7071
vn -0.5562 0.0000 -0.8310
vn -0.3966 0.0000 -0.9180
vn -0.2457 0.0000 -0.9694
vn -0.1136 0.0000 -0.9935
vn -0.0265 0.0000 -0.9996
vn -0.0000 0.0000 -1.0000
vn -0.0015 0.0000 -1.0000
vn 0.0247 0.0000 -0.9997
vn 0.1134 0.0000 -0.9936
vn 0.2457 0.0000 -0.9694
vn 0.3966 0.0000 -0.9180
vn 0.5562 0.0000 -0.8310
vn 0.7071 0.0000 -0.7071
vn 0.8310 0.0000 -0.5562
vn 0.9180 0.0000 -0.3966
vn 0.9694 0.0000 -0.2457
vn 0.9935 0.0000 -0.1136
vn 0.9996 0.0000 -0.0265
vn 1.0000 0.0000 0.0000
vn 0.0000 -0.0000 1.0000
vn 1.0000 0.0000 -0.0015
vn 0.0265 -0.0000 0.9996
vn 0.9997 0.0000 0.0247
vn 0.1136 -0.0000 0.9935
vn 0.9936 0.0000 0.1134
vn 0.9694 0.0000 0.2457
vn 0.2457 -0.0000 0.9694
vn 0.3966 -0.0000 0.9180
vn 0.9180 0.0000 0.3966
vn 0.0000 -1.0000 -0.0000
vn -0.0000 1.0000 0.0000
# 54 vertex normals

o macbook_screen
g macbook_screen
usemtl wire_225088199
s 2
f 1//1 2//2 3//2 
f 3//2 4//1 1//1 
f 2//2 5//3 6//3 
f 6//3 3//2 2//2 
f 7//4 8//5 9//5 
f 9//5 10//4 7//4 
f 8//5 11//6 12//6 
f 12//6 9//5 8//5 
f 11//6 13//7 14//7 
f 14//7 12//6 11//6 
f 15//8 7//4 10//4 
f 10//4 16//8 15//8 
f 17//9 15//8 16//8 
f 16//8 18//9 17//9 
f 13//7 19//10 20//10 
f 20//10 14//7 13//7 
f 21//11 17//9 18//9 
f 18//9 22//11 21//11 
f 19//10 23//12 24//12 
f 24//12 20//10 19//10 
f 25//13 21//11 22//11 
f 22//11 26//13 25//13 
f 27//14 25//13 26//13 
f 26//13 28//14 27//14 
f 23//12 29//15 30//15 
f 30//15 24//12 23//12 
f 29//15 31//16 32//16 
f 32//16 30//15 29//15 
f 31//16 33//17 34//17 
f 34//17 32//16 31//16 
f 33//17 35//18 36//18 
f 36//18 34//17 33//17 
f 35//18 37//19 38//19 
f 38//19 36//18 35//18 
f 37//19 39//20 40//20 
f 40//20 38//19 37//19 
f 39//20 41//21 42//21 
f 42//21 40//20 39//20 
f 41//21 43//22 44//22 
f 44//22 42//21 41//21 
f 43//22 45//23 46//23 
f 46//23 44//22 43//22 
f 45//23 47//24 48//24 
f 48//24 46//23 45//23 
f 47//24 49//25 50//25 
f 50//25 48//24 47//24 
f 49//25 51//26 52//26 
f 52//26 50//25 49//25 
f 51//26 53//27 54//27 
f 54//27 52//26 51//26 
f 53//27 55//28 56//28 
f 56//28 54//27 53//27 
f 55//28 57//29 58//29 
f 58//29 56//28 55//28 
f 57//29 59//30 60//30 
f 60//30 58//29 57//29 
f 59//30 61//31 62//31 
f 62//31 60//30 59//30 
f 61//31 63//32 64//32 
f 64//32 62//31 61//31 
f 63//32 65//33 66//33 
f 66//33 64//32 63//32 
f 65//33 67//34 68//34 
f 68//34 66//33 65//33 
f 67//34 69//35 70//35 
f 70//35 68//34 67//34 
f 69//35 71//36 72//36 
f 72//36 70//35 69//35 
f 71//36 73//37 74//37 
f 74//37 72//36 71//36 
f 73//37 75//38 76//38 
f 76//38 74//37 73//37 
f 75//38 77//39 78//39 
f 78//39 76//38 75//38 
f 77//39 79//40 80//40 
f 80//40 78//39 77//39 
f 79//40 81//41 82//41 
f 82//41 80//40 79//40 
f 81//41 83//42 84//42 
f 84//42 82//41 81//41 
f 85//43 27//14 28//14 
f 28//14 86//43 85//43 
f 83//42 87//44 88//44 
f 88//44 84//42 83//42 
f 89//45 85//43 86//43 
f 86//43 90//45 89//45 
f 87//44 91//46 92//46 
f 92//46 88//44 87//44 
f 93//47 89//45 90//45 
f 90//45 94//47 93//47 
f 91//46 95//48 96//48 
f 96//48 92//46 91//46 
f 95//48 97//49 98//49 
f 98//49 96//48 95//48 
f 99//50 93//47 94//47 
f 94//47 100//50 99//50 
f 101//51 99//50 100//50 
f 100//50 102//51 101//51 
f 97//49 103//52 104//52 
f 104//52 98//49 97//49 
f 5//3 101//51 102//51 
f 102//51 6//3 5//3 
f 103//52 1//1 4//1 
f 4//1 104//52 103//52 
s off
f 4//53 3//53 105//53 
f 105//53 106//53 4//53 
f 3//53 6//53 107//53 
f 107//53 105//53 3//53 
f 6//53 102//53 108//53 
f 108//53 107//53 6//53 
f 102//53 100//53 109//53 
f 109//53 108//53 102//53 
f 100//53 94//53 110//53 
f 110//53 109//53 100//53 
f 94//53 90//53 111//53 
f 111//53 110//53 94//53 
f 90//53 86//53 112//53 
f 112//53 111//53 90//53 
f 86//53 28//53 113//53 
f 113//53 112//53 86//53 
f 28//53 26//53 114//53 
f 114//53 113//53 28//53 
f 26//53 22//53 115//53 
f 115//53 114//53 26//53 
f 22//53 18//53 116//53 
f 116//53 115//53 22//53 
f 18//53 16//53 117//53 
f 117//53 116//53 18//53 
f 16//53 10//53 118//53 
f 118//53 117//53 16//53 
f 10//53 9//53 119//53 
f 119//53 118//53 10//53 
f 9//53 12//53 120//53 
f 120//53 119//53 9//53 
f 12//53 14//53 121//53 
f 121//53 120//53 12//53 
f 14//53 20//53 122//53 
f 122//53 121//53 14//53 
f 20//53 24//53 123//53 
f 123//53 122//53 20//53 
f 24//53 30//53 124//53 
f 124//53 123//53 24//53 
f 30//53 32//53 125//53 
f 125//53 124//53 30//53 
f 32//53 34//53 126//53 
f 126//53 125//53 32//53 
f 34//53 36//53 127//53 
f 127//53 126//53 34//53 
f 36//53 38//53 128//53 
f 128//53 127//53 36//53 
f 38//53 40//53 129//53 
f 129//53 128//53 38//53 
f 40//53 42//53 130//53 
f 130//53 129//53 40//53 
f 42//53 44//53 131//53 
f 131//53 130//53 42//53 
f 44//53 46//53 132//53 
f 132//53 131//53 44//53 
f 46//53 48//53 133//53 
f 133//53 132//53 46//53 
f 48//53 50//53 134//53 
f 134//53 133//53 48//53 
f 50//53 52//53 135//53 
f 135//53 134//53 50//53 
f 52//53 54//53 136//53 
f 136//53 135//53 52//53 
f 54//53 56//53 137//53 
f 137//53 136//53 54//53 
f 56//53 58//53 138//53 
f 138//53 137//53 56//53 
f 58//53 60//53 139//53 
f 139//53 138//53 58//53 
f 60//53 62//53 140//53 
f 140//53 139//53 60//53 
f 62//53 64//53 141//53 
f 141//53 140//53 62//53 
f 64//53 66//53 142//53 
f 142//53 141//53 64//53 
f 66//53 68//53 143//53 
f 143//53 142//53 66//53 
f 68//53 70//53 144//53 
f 144//53 143//53 68//53 
f 70//53 72//53 145//53 
f 145//53 144//53 70//53 
f 72//53 74//53 146//53 
f 146//53 145//53 72//53 
f 74//53 76//53 147//53 
f 147//53 146//53 74//53 
f 76//53 78//53 148//53 
f 148//53 147//53 76//53 
f 78//53 80//53 149//53 
f 149//53 148//53 78//53 
f 80//53 82//53 150//53 
f 150//53 149//53 80//53 
f 82//53 84//53 151//53 
f 151//53 150//53 82//53 
f 84//53 88//53 152//53 
f 152//53 151//53 84//53 
f 88//53 92//53 153//53 
f 153//53 152//53 88//53 
f 92//53 96//53 154//53 
f 154//53 153//53 92//53 
f 96//53 98//53 155//53 
f 155//53 154//53 96//53 
f 98//53 104//53 156//53 
f 156//53 155//53 98//53 
f 104//53 4//53 106//53 
f 106//53 156//53 104//53 
f 5//54 2//54 157//54 
f 157//54 158//54 5//54 
f 2//54 1//54 159//54 
f 159//54 157//54 2//54 
f 1//54 103//54 160//54 
f 160//54 159//54 1//54 
f 103//54 97//54 161//54 
f 161//54 160//54 103//54 
f 97//54 95//54 162//54 
f 162//54 161//54 97//54 
f 95//54 91//54 163//54 
f 163//54 162//54 95//54 
f 91//54 87//54 164//54 
f 164//54 163//54 91//54 
f 87//54 83//54 165//54 
f 165//54 164//54 87//54 
f 83//54 81//54 166//54 
f 166//54 165//54 83//54 
f 81//54 79//54 167//54 
f 167//54 166//54 81//54 
f 79//54 77//54 168//54 
f 168//54 167//54 79//54 
f 77//54 75//54 169//54 
f 169//54 168//54 77//54 
f 75//54 73//54 170//54 
f 170//54 169//54 75//54 
f 73//54 71//54 171//54 
f 171//54 170//54 73//54 
f 71//54 69//54 172//54 
f 172//54 171//54 71//54 
f 69//54 67//54 173//54 
f 173//54 172//54 69//54 
f 67//54 65//54 174//54 
f 174//54 173//54 67//54 
f 65//54 63//54 175//54 
f 175//54 174//54 65//54 
f 63//54 61//54 176//54 
f 176//54 175//54 63//54 
f 61//54 59//54 177//54 
f 177//54 176//54 61//54 
f 59//54 57//54 178//54 
f 178//54 177//54 59//54 
f 57//54 55//54 179//54 
f 179//54 178//54 57//54 
f 55//54 53//54 180//54 
f 180//54 179//54 55//54 
f 53//54 51//54 181//54 
f 181//54 180//54 53//54 
f 51//54 49//54 182//54 
f 182//54 181//54 51//54 
f 49//54 47//54 183//54 
f 183//54 182//54 49//54 
f 47//54 45//54 184//54 
f 184//54 183//54 47//54 
f 45//54 43//54 185//54 
f 185//54 184//54 45//54 
f 43//54 41//54 186//54 
f 186//54 185//54 43//54 
f 41//54 39//54 187//54 
f 187//54 186//54 41//54 
f 39//54 37//54 188//54 
f 188//54 187//54 39//54 
f 37//54 35//54 189//54 
f 189//54 188//54 37//54 
f 35//54 33//54 190//54 
f 190//54 189//54 35//54 
f 33//54 31//54 191//54 
f 191//54 190//54 33//54 
f 31//54 29//54 192//54 
f 192//54 191//54 31//54 
f 29//54 23//54 193//54 
f 193//54 192//54 29//54 
f 23//54 19//54 194//54 
f 194//54 193//54 23//54 
f 19//54 13//54 195//54 
f 195//54 194//54 19//54 
f 13//54 11//54 196//54 
f 196//54 195//54 13//54 
f 11//54 8//54 197//54 
f 197//54 196//54 11//54 
f 8//54 7//54 198//54 
f 198//54 197//54 8//54 
f 7//54 15//54 199//54 
f 199//54 198//54 7//54 
f 15//54 17//54 200//54 
f 200//54 199//54 15//54 
f 17//54 21//54 201//54 
f 201//54 200//54 17//54 
f 21//54 25//54 202//54 
f 202//54 201//54 21//54 
f 25//54 27//54 203//54 
f 203//54 202//54 25//54 
f 27//54 85//54 204//54 
f 204//54 203//54 27//54 
f 85//54 89//54 205//54 
f 205//54 204//54 85//54 
f 89//54 93//54 206//54 
f 206//54 205//54 89//54 
f 93//54 99//54 207//54 
f 207//54 206//54 93//54 
f 99//54 101//54 208//54 
f 208//54 207//54 99//54 
f 101//54 5//54 158//54 
f 158//54 208//54 101//54 
f 106//53 105//53 209//53 
f 105//53 107//53 209//53 
f 107//53 108//53 209//53 
f 108//53 109//53 209//53 
f 109//53 110//53 209//53 
f 110//53 111//53 209//53 
f 111//53 112//53 209//53 
f 112//53 113//53 209//53 
f 113//53 114//53 209//53 
f 114//53 115//53 209//53 
f 115//53 116//53 209//53 
f 116//53 117//53 209//53 
f 117//53 118//53 209//53 
f 118//53 119//53 209//53 
f 119//53 120//53 209//53 
f 120//53 121//53 209//53 
f 121//53 122//53 209//53 
f 122//53 123//53 209//53 
f 123//53 124//53 209//53 
f 124//53 125//53 209//53 
f 125//53 126//53 209//53 
f 126//53 127//53 209//53 
f 127//53 128//53 209//53 
f 128//53 129//53 209//53 
f 129//53 130//53 209//53 
f 130//53 131//53 209//53 
f 131//53 132//53 209//53 
f 132//53 133//53 209//53 
f 133//53 134//53 209//53 
f 134//53 135//53 209//53 
f 135//53 136//53 209//53 
f 136//53 137//53 209//53 
f 137//53 138//53 209//53 
f 138//53 139//53 209//53 
f 139//53 140//53 209//53 
f 140//53 141//53 209//53 
f 141//53 142//53 209//53 
f 142//53 143//53 209//53 
f 143//53 144//53 209//53 
f 144//53 145//53 209//53 
f 145//53 146//53 209//53 
f 146//53 147//53 209//53 
f 147//53 148//53 209//53 
f 148//53 149//53 209//53 
f 149//53 150//53 209//53 
f 150//53 151//53 209//53 
f 151//53 152//53 209//53 
f 152//53 153//53 209//53 
f 153//53 154//53 209//53 
f 154//53 155//53 209//53 
f 155//53 156//53 209//53 
f 156//53 106//53 209//53 
f 158//54 157//54 210//54 
f 157//54 159//54 210//54 
f 159//54 160//54 210//54 
f 160//54 161//54 210//54 
f 161//54 162//54 210//54 
f 162//54 163//54 210//54 
f 163//54 164//54 210//54 
f 164//54 165//54 210//54 
f 165//54 166//54 210//54 
f 166//54 167//54 210//54 
f 167//54 168//54 210//54 
f 168//54 169//54 210//54 
f 169//54 170//54 210//54 
f 170//54 171//54 210//54 
f 171//54 172//54 210//54 
f 172//54 173//54 210//54 
f 173//54 174//54 210//54 
f 174//54 175//54 210//54 
f 175//54 176//54 210//54 
f 176//54 177//54 210//54 
f 177//54 178//54 210//54 
f 178//54 179//54 210//54 
f 179//54 180//54 210//54 
f 180//54 181//54 210//54 
f 181//54 182//54 210//54 
f 182//54 183//54 210//54 
f 183//54 184//54 210//54 
f 184//54 185//54 210//54 
f 185//54 186//54 210//54 
f 186//54 187//54 210//54 
f 187//54 188//54 210//54 
f 188//54 189//54 210//54 
f 189//54 190//54 210//54 
f 190//54 191//54 210//54 
f 191//54 192//54 210//54 
f 192//54 193//54 210//54 
f 193//54 194//54 210//54 
f 194//54 195//54 210//54 
f 195//54 196//54 210//54 
f 196//54 197//54 210//54 
f 197//54 198//54 210//54 
f 198//54 199//54 210//54 
f 199//54 200//54 210//54 
f 200//54 201//54 210//54 
f 201//54 202//54 210//54 
f 202//54 203//54 210//54 
f 203//54 204//54 210//54 
f 204//54 205//54 210//54 
f 205//54 206//54 210//54 
f 206//54 207//54 210//54 
f 207//54 208//54 210//54 
f 208//54 158//54 210//54 
# 416 faces

