# 3ds Max Wavefront OBJ Exporter v0.99 - (c)2007 guruware
# File Created: 28.01.2023 22:35:43

mtllib newscene.mtl

#
# object walls
#

v  -2356.1978 -350.0284 76.9180
v  346.1993 -350.0284 76.9180
v  346.1993 -2084.5981 76.9180
v  -2356.1978 -2084.5981 76.9180
v  346.1993 -2084.5981 156.9180
v  346.1993 -350.0284 156.9180
v  -2356.1978 -350.0284 156.9180
v  -2356.1978 -2084.5981 156.9180
v  -2356.1978 -2134.5981 76.9180
v  346.1993 -2134.5981 76.9180
v  346.1993 -2134.5981 156.9180
v  -2356.1978 -2134.5981 156.9180
v  426.1993 -350.0284 76.9180
v  426.1993 -350.0284 156.9180
v  426.1993 -2084.5981 156.9180
v  426.1993 -2084.5981 76.9180
v  346.1993 527.0513 76.9180
v  -2356.1978 527.0514 76.9180
v  -2356.1978 527.0514 156.9180
v  346.1993 527.0513 156.9180
v  -2406.1978 203.5205 76.9180
v  -2406.1978 203.5205 156.9180
v  -2406.1978 447.0513 156.9179
v  -2406.1978 447.0513 76.9180
v  346.1993 203.5205 1378.2048
v  426.1993 203.5205 1378.2048
v  426.1993 447.0514 1378.2048
v  346.1993 447.0514 1378.2048
v  426.1993 -2134.5981 76.9180
v  426.1993 -2134.5981 156.9180
v  346.1993 447.0513 76.9180
v  -2356.1978 447.0513 76.9180
v  -2406.1978 527.0514 156.9179
v  -2406.1978 527.0514 76.9180
v  -2356.1978 447.0514 1378.2048
v  346.1993 527.0514 1378.2048
v  -2356.1978 527.0514 1378.2048
v  426.1993 447.0513 156.9180
v  426.1993 447.0513 76.9180
v  426.1993 527.0513 76.9180
v  426.1993 527.0513 156.9180
v  426.1993 527.0514 1378.2048
v  326.1993 203.5205 156.9180
v  326.1993 203.5205 215.6653
v  326.1993 427.0513 215.6653
v  326.1993 427.0513 156.9180
v  426.1993 -2084.5981 215.6653
v  346.1993 -2084.5981 215.6653
v  426.1994 -350.0284 215.6653
v  426.1993 527.0513 215.6653
v  426.1994 447.0513 215.6653
v  346.1993 527.0513 215.6653
v  -2356.1978 527.0513 215.6653
v  -2406.1978 447.0513 215.6653
v  -2406.1978 527.0513 215.6653
v  -2356.1978 427.0513 215.6653
v  -2356.1978 427.0513 156.9180
v  346.1993 203.5205 76.9180
v  -2356.1978 203.5205 76.9180
v  346.1993 447.0513 156.9180
v  -2356.1978 447.0513 156.9180
v  -2356.1978 203.5205 156.9180
v  346.1993 203.5205 156.9180
v  426.1993 203.5205 156.9180
v  426.1993 203.5205 76.9180
v  -2406.1978 -350.0284 76.9180
v  -2406.1978 -350.0284 156.9180
v  346.1993 -350.0283 1378.2048
v  426.1993 -350.0283 1378.2048
v  326.1993 -350.0284 156.9180
v  326.1993 -350.0284 215.6653
v  426.1994 203.5205 215.6653
v  -2406.1978 -2084.5981 76.9180
v  -2406.1978 -2084.5981 156.9180
v  346.1993 -2084.5984 1378.2048
v  426.1993 -2084.5984 1378.2048
v  326.1993 -2084.5981 156.9180
v  326.1993 -2084.5981 215.6653
v  346.1993 203.5205 943.1843
v  346.1993 447.0513 943.1843
v  346.1993 447.0513 455.8163
v  346.1993 203.5205 455.8163
v  426.1993 -2084.5981 943.1843
v  346.1993 -2084.5981 943.1843
v  346.1993 -2084.5981 455.8164
v  426.1993 -2084.5981 455.8164
v  426.1993 -350.0283 943.1843
v  426.1993 -350.0284 455.8163
v  426.1993 527.0513 943.1843
v  426.1993 447.0513 943.1843
v  426.1993 447.0513 455.8163
v  426.1993 527.0513 455.8164
v  346.1993 527.0513 943.1843
v  346.1993 527.0513 455.8164
v  -2356.1978 527.0515 943.1843
v  -2356.1978 527.0513 455.8164
v  -2406.1978 447.0513 943.1843
v  -2406.1978 527.0515 943.1843
v  -2406.1978 527.0513 455.8164
v  -2406.1978 447.0513 455.8163
v  -2356.1978 447.0513 943.1843
v  -2356.1978 447.0513 455.8163
v  426.1993 203.5205 943.1843
v  426.1993 203.5205 455.8163
v  346.1993 -350.0283 943.1843
v  346.1993 -350.0284 455.8163
v  426.1993 183.5205 475.8163
v  346.1993 183.5205 475.8163
v  346.1993 -330.0284 475.8163
v  426.1993 -330.0284 475.8163
v  426.1993 183.5205 923.1843
v  346.1993 183.5205 923.1843
v  426.1993 -330.0283 923.1843
v  346.1993 -330.0283 923.1843
v  346.1993 447.0513 215.6653
v  346.1993 203.5205 215.6653
v  -2356.1978 447.0513 215.6653
v  346.1993 -350.0284 215.6653
v  336.1993 203.5205 943.1843
v  336.1993 203.5205 455.8163
v  336.1993 183.5205 475.8163
v  336.1993 183.5205 923.1843
v  336.1993 -350.0284 455.8163
v  336.1993 -330.0284 475.8163
v  336.1993 -350.0283 943.1843
v  336.1993 -330.0283 923.1843
v  -2406.1978 427.0513 156.9179
v  -2406.1978 427.0513 215.6652
v  -2406.1978 -2134.5981 156.9180
v  -2406.1978 -2134.5981 76.9180
v  -2356.1978 -2084.5984 1378.2047
v  -2356.1978 -350.0284 1378.2047
v  -2406.1978 -350.0284 1378.2047
v  -2406.1978 -2084.5984 1378.2047
v  -2356.1978 203.5205 1378.2047
v  -2406.1978 203.5205 1378.2047
v  -2356.1978 447.0514 1378.2047
v  -2406.1978 447.0514 1378.2046
v  -2406.1978 527.0514 1378.2048
v  -2406.1978 447.0514 1378.2048
v  346.1993 -2134.5984 1378.2048
v  426.1993 -2134.5984 1378.2048
v  -2356.1978 -2084.5984 1378.2048
v  -2356.1978 -2134.5984 1378.2048
v  -2406.1978 -2084.5984 1378.2048
v  -2406.1978 -2134.5984 1378.2048
# 146 vertices

vn 0.0000 0.0000 -1.0000
vn 0.0000 0.0000 1.0000
vn 0.0000 -1.0000 0.0000
vn 1.0000 0.0000 0.0000
vn 0.0000 1.0000 -0.0000
vn 0.0000 1.0000 0.0000
vn -1.0000 0.0000 0.0000
vn 1.0000 -0.0000 -0.0000
vn 1.0000 0.0000 -0.0000
vn -0.0000 -1.0000 0.0000
vn 1.0000 -0.0000 0.0000
vn 0.0000 -1.0000 -0.0000
vn -0.0000 0.0000 -1.0000
vn 0.0000 -0.0000 -1.0000
vn -0.0000 0.0000 1.0000
vn -0.0000 -0.0000 1.0000
vn -0.0000 1.0000 0.0000
vn -0.0000 -1.0000 -0.0000
# 18 vertex normals

vt 1.0000 0.2721 0.0000
vt 0.0000 0.2721 0.0000
vt 0.0000 0.0000 0.0000
vt 1.0000 0.0000 0.0000
vt 1.0000 1.0000 0.0000
vt 0.0000 1.0000 0.0000
vt 0.2721 0.0000 0.0000
vt 0.2721 1.0000 0.0000
vt 0.2118 0.0000 0.0000
vt 0.2118 1.0000 0.0000
vt 0.7882 1.0000 0.0000
vt 0.0000 0.7882 0.0000
vt 1.0000 0.7882 0.0000
vt 0.7882 0.0000 0.0000
vt 0.7279 0.0000 0.0000
vt 0.7279 1.0000 0.0000
# 16 texture coords

o walls
g walls
usemtl wire_115115115
s 2
f 1/1/1 2/2/1 3/3/1 
f 3/3/1 4/4/1 1/1/1 
s 4
f 5/4/2 6/1/2 7/2/2 
f 7/2/2 8/3/2 5/4/2 
s 8
f 9/3/3 10/4/3 11/5/3 
f 11/5/3 12/6/3 9/3/3 
s 16
f 13/7/4 14/8/4 15/6/4 
f 15/6/4 16/3/4 13/7/4 
s 32
f 17/3/5 18/4/6 19/5/5 
f 19/5/5 20/6/5 17/3/5 
s 64
f 21/9/7 22/10/7 23/6/7 
f 23/6/7 24/3/7 21/9/7 
s off
f 2/7/1 13/7/1 16/3/1 
f 16/3/1 3/3/1 2/7/1 
f 25/11/2 26/11/2 27/5/2 
f 27/5/2 28/5/2 25/11/2 
f 11/6/3 10/3/3 29/3/3 
f 29/3/3 30/6/3 11/6/3 
f 31/3/1 32/4/1 18/4/1 
f 18/4/1 17/3/1 31/3/1 
f 24/4/7 23/5/7 33/5/7 
f 33/5/7 34/4/7 24/4/7 
f 35/5/2 28/6/2 36/6/2 
f 36/6/2 37/5/2 35/5/2 
f 38/5/4 39/4/4 40/4/4 
f 40/4/4 41/5/4 38/5/4 
f 31/4/1 17/4/1 40/4/1 
f 40/4/1 39/4/1 31/4/1 
f 17/3/5 20/6/5 41/6/5 
f 41/6/5 40/3/5 17/3/5 
f 28/6/2 27/6/2 42/6/2 
f 42/6/2 36/6/2 28/6/2 
f 43/11/7 44/11/7 45/5/7 
f 45/5/7 46/5/7 43/11/7 
f 15/6/3 47/6/3 48/6/3 
f 48/6/3 5/6/3 15/6/3 
f 14/8/8 49/8/8 47/6/8 
f 47/6/4 15/6/4 14/8/4 
f 41/6/4 50/6/4 51/6/4 
f 51/6/9 38/6/9 41/6/9 
f 20/6/6 52/6/6 50/6/6 
f 50/6/6 41/6/6 20/6/6 
f 19/5/6 53/5/6 52/6/6 
f 52/6/6 20/6/6 19/5/6 
f 23/5/7 54/5/7 55/5/7 
f 55/5/7 33/5/7 23/5/7 
f 46/6/3 45/6/3 56/5/3 
f 56/5/3 57/5/3 46/6/3 
s 2
f 32/5/1 31/6/1 58/12/1 
f 58/12/1 59/13/1 32/5/1 
s 4
f 60/5/2 61/6/2 62/12/2 
f 62/12/2 63/13/2 60/5/2 
s 16
f 39/4/4 38/5/4 64/11/4 
f 64/11/4 65/14/4 39/4/4 
s 64
f 66/15/7 67/16/7 22/10/7 
f 22/10/7 21/9/7 66/15/7 
s off
f 31/4/1 39/4/1 65/14/1 
f 65/14/1 58/14/1 31/4/1 
f 68/8/2 69/8/2 26/11/2 
f 26/11/2 25/11/2 68/8/2 
f 70/8/7 71/8/7 44/11/7 
f 44/11/7 43/11/7 70/8/7 
f 38/5/9 51/5/9 72/11/9 
f 72/11/9 64/11/9 38/5/9 
s 2
f 59/13/1 58/12/1 2/2/1 
f 2/2/1 1/1/1 59/13/1 
s 4
f 63/13/2 62/12/2 7/2/2 
f 7/2/2 6/1/2 63/13/2 
s 16
f 65/14/4 64/11/4 14/8/4 
f 14/8/4 13/7/4 65/14/4 
s off
f 58/14/1 65/14/1 13/7/1 
f 13/7/1 2/7/1 58/14/1 
f 64/11/9 72/11/9 49/8/9 
f 49/8/9 14/8/9 64/11/9 
s 64
f 73/4/7 74/5/7 67/16/7 
f 67/16/7 66/15/7 73/4/7 
s off
f 75/6/2 76/6/2 69/8/2 
f 69/8/2 68/8/2 75/6/2 
f 77/6/7 78/6/7 71/8/7 
f 71/8/7 70/8/7 77/6/7 
f 79/11/7 80/5/7 81/5/7 
f 81/5/7 82/11/7 79/11/7 
f 83/6/3 84/6/3 85/6/3 
f 85/6/3 86/6/3 83/6/3 
f 87/8/4 83/6/4 86/6/4 
f 86/6/4 88/8/4 87/8/4 
f 89/6/4 90/6/4 91/6/4 
f 91/6/4 92/6/4 89/6/4 
f 93/6/5 89/6/5 92/6/5 
f 92/6/5 94/6/5 93/6/5 
f 95/5/5 93/6/5 94/6/5 
f 94/6/5 96/5/5 95/5/5 
f 97/5/7 98/5/7 99/5/7 
f 99/5/7 100/5/7 97/5/7 
f 80/6/3 101/5/3 102/5/3 
f 102/5/10 81/6/10 80/6/10 
f 90/5/4 103/11/4 104/11/4 
f 104/11/4 91/5/4 90/5/4 
f 84/6/7 105/8/7 106/8/7 
f 106/8/7 85/6/7 84/6/7 
s 1
f 28/6/3 35/5/3 101/5/3 
f 101/5/3 80/6/3 28/6/3 
f 107/12/2 108/14/2 109/13/2 
f 109/13/2 110/11/2 107/12/2 
s 2
f 111/2/3 112/7/3 108/14/3 
f 108/14/3 107/12/3 111/2/3 
s 1
f 113/7/1 114/8/1 112/7/1 
f 112/7/1 111/2/1 113/7/1 
s 2
f 114/8/5 113/7/5 110/11/5 
f 110/11/5 109/13/5 114/8/5 
s off
f 82/11/7 81/5/7 115/5/7 
f 115/5/7 116/11/7 82/11/7 
f 86/6/3 85/6/3 48/6/3 
f 48/6/3 47/6/3 86/6/3 
f 88/8/4 86/6/4 47/6/4 
f 47/6/11 49/8/11 88/8/11 
f 92/6/11 91/6/11 51/6/11 
f 51/6/4 50/6/4 92/6/4 
f 94/6/6 92/6/6 50/6/6 
f 50/6/6 52/6/6 94/6/6 
f 96/5/6 94/6/6 52/6/6 
f 52/6/6 53/5/6 96/5/6 
f 100/5/7 99/5/7 55/5/7 
f 55/5/7 54/5/7 100/5/7 
f 81/6/10 102/5/10 117/5/10 
f 117/5/12 115/6/12 81/6/12 
f 106/8/7 82/11/7 116/11/7 
f 116/11/7 118/8/7 106/8/7 
f 91/5/4 104/11/4 72/11/4 
f 72/11/4 51/5/4 91/5/4 
f 104/11/4 88/8/4 49/8/4 
f 49/8/4 72/11/4 104/11/4 
f 85/6/7 106/8/7 118/8/7 
f 118/8/7 48/6/7 85/6/7 
f 119/7/7 120/14/7 121/14/7 
f 121/14/7 122/7/7 119/7/7 
f 120/14/7 123/13/7 124/13/7 
f 124/13/7 121/14/7 120/14/7 
f 123/13/7 125/8/7 126/8/7 
f 126/8/7 124/13/7 123/13/7 
f 125/8/7 119/7/7 122/7/7 
f 122/7/7 126/8/7 125/8/7 
f 104/12/4 103/2/4 111/2/4 
f 111/2/4 107/12/4 104/12/4 
f 103/2/4 87/7/4 113/7/4 
f 113/7/4 111/2/4 103/2/4 
f 87/7/4 88/11/4 110/11/4 
f 110/11/4 113/7/4 87/7/4 
f 88/11/4 104/12/4 107/12/4 
f 107/12/4 110/11/4 88/11/4 
f 60/5/1 63/11/1 43/11/1 
f 43/11/1 46/5/1 60/5/1 
f 63/11/1 6/8/1 70/8/1 
f 70/8/1 43/11/1 63/11/1 
f 6/8/1 5/6/1 77/6/1 
f 77/6/1 70/8/1 6/8/1 
f 5/6/3 48/6/3 78/6/3 
f 78/6/3 77/6/3 5/6/3 
f 48/6/2 118/8/2 71/8/2 
f 71/8/2 78/6/2 48/6/2 
f 118/8/2 116/11/2 44/11/2 
f 44/11/2 71/8/2 118/8/2 
f 116/11/2 115/5/2 45/5/2 
f 45/5/2 44/11/2 116/11/2 
f 115/6/2 117/5/2 56/5/2 
f 56/5/2 45/6/2 115/6/2 
f 54/5/7 23/5/7 127/5/7 
f 127/5/7 128/5/7 54/5/7 
f 61/5/1 60/6/1 46/6/1 
f 46/6/1 57/5/1 61/5/1 
f 79/7/6 82/14/6 120/14/6 
f 120/14/6 119/7/6 79/7/6 
f 82/14/1 106/13/1 123/13/1 
f 123/13/1 120/14/1 82/14/1 
f 106/13/3 105/8/3 125/8/3 
f 125/8/3 123/13/3 106/13/3 
f 105/8/2 79/7/2 119/7/2 
f 119/7/2 125/8/2 105/8/2 
f 108/14/3 112/7/3 122/7/3 
f 122/7/3 121/14/3 108/14/3 
f 112/7/1 114/8/1 126/8/1 
f 126/8/1 122/7/1 112/7/1 
f 114/8/5 109/13/5 124/13/5 
f 124/13/5 126/8/5 114/8/5 
f 109/13/2 108/14/2 121/14/2 
f 121/14/2 124/13/2 109/13/2 
f 1/15/13 4/4/13 73/4/13 
f 73/4/14 66/15/14 1/15/14 
f 9/4/3 12/5/3 129/5/3 
f 129/5/3 130/4/3 9/4/3 
f 131/5/2 132/16/2 133/16/2 
f 133/16/2 134/5/2 131/5/2 
f 132/16/2 135/10/2 136/10/2 
f 136/10/2 133/16/2 132/16/2 
f 135/10/15 137/6/15 138/6/15 
f 138/6/2 136/10/2 135/10/2 
f 61/5/1 57/5/1 127/5/1 
f 127/5/1 23/5/1 61/5/1 
f 57/5/3 56/5/3 128/5/3 
f 128/5/3 127/5/3 57/5/3 
f 56/5/15 117/5/15 54/5/15 
f 54/5/16 128/5/16 56/5/16 
f 117/5/3 102/5/3 100/5/3 
f 100/5/3 54/5/3 117/5/3 
f 102/5/3 101/5/3 97/5/3 
f 97/5/3 100/5/3 102/5/3 
f 35/5/2 37/5/2 139/5/2 
f 139/5/2 140/5/2 35/5/2 
f 95/5/5 96/5/5 99/5/5 
f 99/5/5 98/5/5 95/5/5 
f 96/5/6 53/5/6 55/5/6 
f 55/5/6 99/5/6 96/5/6 
f 53/5/17 19/5/17 33/5/17 
f 33/5/17 55/5/17 53/5/17 
f 19/5/6 18/4/6 34/4/6 
f 34/4/6 33/5/6 19/5/6 
f 18/4/1 32/4/1 24/4/1 
f 24/4/1 34/4/1 18/4/1 
f 32/3/1 59/9/1 21/9/1 
f 21/9/1 24/3/1 32/3/1 
f 59/9/1 1/15/1 66/15/1 
f 66/15/1 21/9/1 59/9/1 
f 4/3/1 3/4/1 10/4/1 
f 10/4/1 9/3/1 4/3/1 
f 3/3/1 16/3/1 29/3/1 
f 29/3/1 10/3/1 3/3/1 
f 16/3/4 15/6/4 30/6/4 
f 30/6/4 29/3/4 16/3/4 
f 76/6/2 75/6/2 141/6/2 
f 141/6/2 142/6/2 76/6/2 
f 75/5/2 143/6/2 144/6/2 
f 144/6/2 141/5/2 75/5/2 
f 143/5/2 145/5/2 146/5/2 
f 146/5/2 144/5/2 143/5/2 
f 74/5/7 73/4/7 130/4/7 
f 130/4/7 129/5/7 74/5/7 
f 73/4/13 4/4/13 9/4/13 
f 9/4/13 130/4/13 73/4/13 
s 1
f 5/5/6 8/6/6 143/6/6 
f 143/6/6 75/5/6 5/5/6 
s off
f 80/5/7 79/11/7 25/11/7 
f 25/11/7 28/5/7 80/5/7 
f 79/11/7 105/8/7 68/8/7 
f 68/8/7 25/11/7 79/11/7 
f 105/8/7 84/6/7 75/6/7 
f 75/6/7 68/8/7 105/8/7 
f 84/6/12 83/6/12 76/6/12 
f 76/6/12 75/6/12 84/6/12 
f 83/6/4 87/8/4 69/8/4 
f 69/8/4 76/6/4 83/6/4 
f 87/8/4 103/11/4 26/11/4 
f 26/11/4 69/8/4 87/8/4 
f 103/11/4 90/5/4 27/5/4 
f 27/5/4 26/11/4 103/11/4 
f 90/6/4 89/6/4 42/6/4 
f 42/6/4 27/6/4 90/6/4 
f 89/6/5 93/6/5 36/6/5 
f 36/6/5 42/6/5 89/6/5 
f 93/6/6 95/5/6 37/5/6 
f 37/5/5 36/6/5 93/6/5 
f 98/5/6 139/5/6 37/5/6 
f 37/5/6 95/5/6 98/5/6 
f 98/5/7 97/5/7 140/5/7 
f 140/5/7 139/5/7 98/5/7 
f 101/5/3 35/5/3 140/5/3 
f 140/5/3 97/5/3 101/5/3 
f 62/10/4 61/6/4 137/6/4 
f 137/6/4 135/10/4 62/10/4 
f 61/6/5 23/6/5 138/6/5 
f 138/6/5 137/6/5 61/6/5 
f 23/6/7 22/10/7 136/10/7 
f 136/10/7 138/6/7 23/6/7 
f 22/10/7 67/16/7 133/16/7 
f 133/16/7 136/10/7 22/10/7 
f 67/16/7 74/5/7 134/5/7 
f 134/5/7 133/16/7 67/16/7 
f 74/5/18 8/5/18 131/5/18 
f 131/5/12 134/5/12 74/5/12 
f 8/5/4 7/16/4 132/16/4 
f 132/16/4 131/5/4 8/5/4 
f 7/16/4 62/10/4 135/10/4 
f 135/10/4 132/16/4 7/16/4 
f 8/5/6 74/5/6 145/5/6 
f 145/5/6 143/5/6 8/5/6 
f 74/5/7 129/5/7 146/5/7 
f 146/5/7 145/5/7 74/5/7 
f 129/5/18 12/5/18 144/5/18 
f 144/5/12 146/5/12 129/5/12 
f 12/6/12 11/5/12 141/5/12 
f 141/5/12 144/6/12 12/6/12 
f 11/6/12 30/6/12 142/6/12 
f 142/6/12 141/6/12 11/6/12 
f 30/6/4 15/6/4 76/6/4 
f 76/6/4 142/6/4 30/6/4 
f 5/6/6 75/6/6 76/6/6 
f 76/6/6 15/6/6 5/6/6 
# 296 faces

