# 3ds Max Wavefront OBJ Exporter v0.99 - (c)2007 guruware
# File Created: 28.01.2023 18:14:17

mtllib note_sticker.mtl

#
# object sticker
#

v  -124.1748 373.2928 404.6861
v  -126.0171 373.2928 434.6295
v  -96.0737 373.2928 436.4718
v  -94.2314 373.2928 406.5284
v  -124.1748 372.7928 404.6861
v  -94.2314 372.7928 406.5284
v  -96.0737 372.7928 436.4718
v  -126.0171 372.7928 434.6295
# 8 vertices

vn -0.0000 1.0000 0.0000
vn 0.0000 -1.0000 -0.0000
vn 0.0614 0.0000 -0.9981
vn 0.9981 0.0000 0.0614
vn -0.0614 -0.0000 0.9981
vn -0.9981 0.0000 -0.0614
# 6 vertex normals

vt 1.0000 0.0000 0.0000
vt 1.0000 1.0000 0.0000
vt 0.0000 1.0000 0.0000
vt 0.0000 0.0000 0.0000
# 4 texture coords

o sticker
g sticker
usemtl note
s 2
f 1/1/1 2/2/1 3/3/1 
f 3/3/1 4/4/1 1/1/1 
s 4
f 5/4/2 6/1/2 7/2/2 
f 7/2/2 8/3/2 5/4/2 
s 8
f 1/4/3 4/1/3 6/2/3 
f 6/2/3 5/3/3 1/4/3 
s 16
f 4/4/4 3/1/4 7/2/4 
f 7/2/4 6/3/4 4/4/4 
s 32
f 3/4/5 2/1/5 8/2/5 
f 8/2/5 7/3/5 3/4/5 
s 64
f 2/4/6 1/1/6 5/2/6 
f 5/2/6 8/3/6 2/4/6 
# 12 faces

