# 3ds Max Wavefront OBJ Exporter v0.99 - (c)2007 guruware
# File Created: 28.01.2023 19:30:08

mtllib window.mtl

#
# object glass_w
#

v  373.0735 183.5205 475.8163
v  373.0735 -330.0284 475.8163
v  373.0735 -330.0283 923.1843
v  373.0735 183.5205 923.1843
v  378.0735 -330.0283 923.1843
v  378.0735 -330.0284 475.8163
v  378.0735 183.5205 475.8163
v  378.0735 183.5205 923.1843
# 8 vertices

vn -1.0000 0.0000 0.0000
vn 1.0000 0.0000 0.0000
vn 0.0000 0.0000 1.0000
vn 0.0000 1.0000 0.0000
vn 0.0000 0.0000 -1.0000
vn 0.0000 -1.0000 0.0000
# 6 vertex normals

o glass_w
g glass_w
usemtl wire_229154215
s 1
f 1//1 2//1 3//1 
f 3//1 4//1 1//1 
f 5//2 6//2 7//2 
f 7//2 8//2 5//2 
s 2
f 5//3 8//3 4//3 
f 4//3 3//3 5//3 
s 4
f 8//4 7//4 1//4 
f 1//4 4//4 8//4 
s 2
f 7//5 6//5 2//5 
f 2//5 1//5 7//5 
s 4
f 6//6 5//6 3//6 
f 3//6 2//6 6//6 
# 12 faces

